A convicted arsonist looks to manipulate a parole officer into a plan to secure his parole by placing his beautiful wife in the lawman's path.
 
http://www.imdb.com/title/tt1423995/

Subs: Dutch, English (srt).


Een veroordeelde brandstichter krijgt het aan de stok met zijn reclasseringsambtenaar. Om zijn vrijheid veilig te stellen speelt hij enkele psychologische spelletjes met deze man, maar wanneer de reclasseringsambtenaar zelf een affaire begint met de vrouw van de veroordeelde loopt het pas echt uit de hand.
 
http://www.moviemeter.nl/film/58410

Ondertitels: Engels, Nederlands (srt).



General
Complete name                    : Stone-AC3-XviD-BRRip 2010 TBS\Stone-AC3-XviD-BRRip 2010 TBS.avi
Format                           : AVI
Format/Info                      : Audio Video Interleave
File size                        : 1.16 GiB
Duration                         : 1h 45mn
Overall bit rate                 : 1 585 Kbps
Writing application              : VirtualDubMod 1.5.4.1 (build 2178/release)
Writing library                  : VirtualDubMod build 2178/release
Source                           : Stone.LIMITED.720p.Bluray.x264-CBGB 

Video
ID                               : 0
Format                           : MPEG-4 Visual
Format profile                   : Simple@L3
Format settings, BVOP            : No
Format settings, QPel            : No
Format settings, GMC             : No warppoints
Format settings, Matrix          : Default (H.263)
Codec ID                         : XVID
Codec ID/Hint                    : XviD
Duration                         : 1h 45mn
Bit rate                         : 1 128 Kbps
Width                            : 720 pixels
Height                           : 304 pixels
Display aspect ratio             : 2.35:1
Frame rate                       : 23.976 fps
Resolution                       : 8 bits
Colorimetry                      : 4:2:0
Scan type                        : Progressive
Bits/(Pixel*Frame)               : 0.215
Stream size                      : 847 MiB (71%)
Writing library                  : XviD 1.1.2 (UTC 2006-11-01)

Audio
ID                               : 1
Format                           : AC-3
Format/Info                      : Audio Coding 3
Codec ID                         : 2000
Duration                         : 1h 45mn
Bit rate mode                    : Constant
Bit rate                         : 448 Kbps
Channel(s)                       : 6 channels
Channel positions                : Front: L C R, Surround: L R, LFE
Sampling rate                    : 48.0 KHz
Stream size                      : 336 MiB (28%)
Alignment                        : Split accross interleaves
Interleave, duration             : 42 ms (1.00 video frame)
Interleave, preload duration     : 500 ms

Thanks to Simply ReleaseS Toppers for the Dutch subs...

Blackbeard  TBS.